<?xml version="1.0" standalone="no"?>
<!DOCTYPE svg PUBLIC "-//W3C//DTD SVG 20010904//EN"
 "http://www.w3.org/TR/2001/REC-SVG-20010904/DTD/svg10.dtd">
<svg version="1.0" xmlns="http://www.w3.org/2000/svg"
 width="3925.000000pt" height="1157.000000pt" viewBox="0 0 3925.000000 1157.000000"
 preserveAspectRatio="xMidYMid meet">
<metadata>
Created by potrace 1.16, written by Peter Selinger 2001-2019
</metadata>
<g transform="translate(0.000000,1157.000000) scale(0.100000,-0.100000)"
fill="#000000" stroke="none">
<path d="M3535 11555 c-89 -16 -236 -54 -434 -111 -172 -50 -222 -74 -486
-242 -721 -455 -1309 -1020 -1731 -1662 -311 -474 -537 -986 -674 -1525 -79
-315 -114 -531 -149 -945 -57 -660 -61 -853 -61 -3010 1 -1577 3 -1939 14
-2000 16 -88 53 -190 91 -251 107 -171 319 -320 527 -369 86 -20 98 -20 2225
-18 l2138 3 90 28 c126 39 208 88 290 171 79 81 140 186 177 306 l23 75 3
1980 c2 1473 0 1999 -9 2055 -36 237 -168 431 -352 519 -153 74 -146 74 -777
80 l-565 6 -56 26 c-65 31 -104 77 -125 145 -21 71 -20 906 1 1071 41 309 131
531 352 868 161 244 381 511 703 853 185 197 254 283 301 377 65 132 73 247
29 419 -47 185 -93 232 -598 617 -218 166 -440 342 -492 391 -156 147 -260
179 -455 143z m254 -151 c28 -16 92 -67 143 -114 82 -75 282 -232 718 -561
225 -169 283 -243 314 -401 41 -202 3 -290 -234 -547 -449 -484 -602 -667
-767 -916 -271 -408 -370 -662 -403 -1035 -7 -78 -10 -294 -8 -575 3 -448 3
-450 27 -510 29 -71 101 -152 166 -184 99 -50 115 -51 668 -51 573 0 612 -3
737 -62 86 -41 186 -140 228 -228 18 -36 42 -103 54 -150 l23 -85 0 -1955 c0
-1845 -1 -1959 -18 -2025 -39 -152 -133 -292 -245 -363 -26 -17 -83 -43 -127
-59 l-80 -28 -2155 0 -2155 0 -73 27 c-172 63 -337 200 -405 335 -73 149 -68
-24 -64 2343 3 1479 8 2175 16 2290 56 794 99 1115 201 1490 324 1196 1056
2188 2170 2943 169 114 421 269 477 292 47 20 417 123 523 146 118 26 203 20
269 -17z"/>
<path d="M10805 11550 c-103 -21 -426 -108 -530 -143 -38 -13 -135 -64 -215
-112 -895 -544 -1537 -1170 -2009 -1960 -94 -156 -252 -473 -325 -650 -123
-300 -233 -674 -291 -990 -45 -248 -70 -482 -117 -1105 -8 -108 -12 -811 -15
-2322 -4 -2158 -4 -2168 17 -2254 61 -257 269 -465 565 -565 l70 -24 2133 -3
c2087 -2 2135 -2 2229 17 230 47 387 169 484 376 80 171 74 -5 74 2225 l0
1985 -22 85 c-38 143 -94 243 -187 335 -88 88 -155 127 -286 166 -73 22 -91
23 -645 28 l-570 6 -47 23 c-61 30 -112 89 -129 150 -22 75 -19 937 4 1092 45
306 141 533 373 880 143 215 334 446 624 758 299 321 348 386 390 512 20 57
22 79 17 180 -10 199 -51 302 -167 420 -43 44 -218 185 -410 330 -364 276
-422 322 -550 436 -156 140 -255 166 -465 124z m272 -138 c23 -12 81 -59 130
-105 48 -46 259 -213 468 -372 397 -302 490 -382 532 -453 36 -62 64 -174 65
-268 1 -74 -2 -88 -34 -155 -41 -88 -89 -149 -259 -329 -667 -708 -977 -1176
-1083 -1630 -40 -175 -46 -276 -46 -779 0 -460 1 -493 20 -553 34 -110 104
-183 221 -231 53 -21 67 -22 629 -27 633 -7 610 -4 745 -72 119 -61 219 -196
262 -358 17 -61 18 -186 18 -2050 l0 -1985 -23 -75 c-53 -170 -151 -292 -283
-355 -148 -69 6 -65 -2322 -65 -2081 0 -2103 0 -2176 20 -185 52 -366 190
-445 339 -72 137 -67 -39 -63 2379 4 2341 2 2236 57 2834 24 257 42 396 76
573 123 636 365 1229 728 1780 192 291 387 528 660 800 289 288 562 509 926
750 325 215 386 246 608 309 394 112 495 126 589 78z"/>
<path d="M26841 10179 c-90 -12 -194 -44 -276 -87 -83 -43 -194 -150 -244
-235 -46 -78 -88 -205 -101 -307 -8 -60 -10 -661 -8 -2025 3 -1807 5 -1944 21
-2005 73 -273 218 -439 452 -518 l80 -27 570 -5 c405 -4 580 -10 606 -18 65
-22 119 -69 147 -130 l27 -57 0 -480 c0 -523 -6 -607 -55 -801 -57 -225 -157
-428 -364 -734 -149 -221 -333 -441 -691 -825 -178 -191 -228 -256 -278 -363
-31 -64 -32 -72 -32 -192 0 -137 17 -222 64 -319 35 -73 149 -193 274 -287
478 -362 658 -503 757 -592 130 -116 184 -147 286 -162 64 -10 85 -8 200 15
158 32 396 93 524 134 190 61 710 403 1078 710 996 829 1640 1932 1831 3136
73 461 76 575 76 3250 l0 2320 -28 80 c-38 106 -77 173 -146 247 -110 120
-255 209 -421 260 l-75 23 -2105 1 c-1158 1 -2134 -2 -2169 -7z m4351 -155
c176 -63 330 -186 400 -320 79 -150 72 22 76 -1959 4 -2191 -10 -3106 -54
-3485 -113 -989 -522 -1907 -1192 -2678 -233 -268 -564 -574 -871 -804 -249
-187 -657 -450 -753 -484 -93 -33 -325 -95 -489 -130 -244 -52 -270 -46 -439
113 -47 44 -256 210 -465 369 -395 301 -474 368 -518 445 -38 64 -67 187 -67
278 1 139 51 224 275 461 341 362 569 634 719 860 233 350 331 559 386 825 36
170 40 254 40 761 0 476 -1 505 -20 567 -27 87 -96 164 -188 209 l-67 33 -570
6 c-491 5 -578 8 -630 23 -202 56 -328 185 -397 406 l-23 75 0 1980 c0 1885 1
1983 18 2044 29 102 77 190 141 259 63 67 114 102 199 134 123 48 62 46 2297
45 l2105 -2 87 -31z"/>
<path d="M34301 10179 c-347 -45 -573 -277 -620 -634 -9 -67 -11 -574 -9
-2025 3 -1802 5 -1939 21 -2000 73 -272 219 -439 452 -518 l80 -27 570 -5
c405 -4 580 -10 606 -18 65 -22 119 -69 147 -130 l27 -57 3 -405 c4 -435 -6
-633 -39 -793 -25 -123 -70 -266 -115 -365 -70 -154 -283 -490 -429 -677 -84
-108 -328 -383 -534 -605 -174 -186 -224 -251 -274 -358 -31 -64 -32 -72 -32
-192 0 -208 42 -322 163 -451 40 -43 128 -119 195 -170 468 -354 636 -486 737
-576 130 -117 184 -148 286 -163 64 -10 85 -8 200 15 158 32 397 93 524 134
190 61 709 402 1075 707 939 783 1567 1805 1795 2923 115 566 122 799 118
3661 l-3 2125 -28 80 c-38 106 -77 173 -146 247 -110 120 -255 209 -421 260
l-75 23 -2105 1 c-1158 1 -2134 -2 -2169 -7z m4344 -152 c158 -55 303 -161
378 -274 58 -89 84 -163 98 -277 8 -67 10 -707 6 -2227 -5 -2443 -12 -2710
-73 -3139 -127 -895 -504 -1727 -1113 -2460 -129 -156 -506 -532 -666 -664
-177 -147 -360 -284 -545 -408 -198 -133 -416 -264 -472 -284 -91 -32 -323
-94 -484 -129 -243 -52 -274 -45 -439 108 -55 50 -269 220 -475 377 -384 292
-468 365 -514 442 -37 63 -66 187 -66 277 1 137 52 225 266 451 126 134 382
419 480 535 176 207 411 568 509 780 77 165 130 355 155 555 6 49 10 297 10
586 0 476 -1 505 -20 567 -27 87 -96 164 -188 209 l-67 33 -570 6 c-491 5
-578 8 -630 23 -162 45 -275 137 -345 279 -82 168 -75 -31 -75 2187 0 1880 1
1978 18 2039 54 191 173 329 340 393 123 48 62 46 2297 45 l2105 -2 80 -28z"/>
</g>
</svg>
