<svg viewBox="0 -80 511.99986 511" xmlns="http://www.w3.org/2000/svg"><path d="m290 231.503906c-5.519531 0-10 4.480469-10 10 0 5.519532 4.480469 10 10 10s10-4.480468 10-10c0-5.519531-4.480469-10-10-10zm0 0"/><path d="m500.160156.675781-.03125.003907c-.03125.007812-.0625.011718-.089844.019531l-491.875 91.972656c-4 .75-7.148437 3.84375-7.960937 7.828125-.8125 3.988281.867187 8.066406 4.25 10.324219l134.191406 89.460937 21.464844 143.695313c1.082031 7.226562 9.285156 10.847656 15.351563 6.890625.027343-.019532.058593-.03125.085937-.050782l94.449219-62.96875 94.453125 62.96875c5.3125 3.542969 12.503906 1.257813 14.839843-4.625l132-331.996093c.003907-.011719.003907-.023438.007813-.03125 2.832031-7.203125-3.3125-14.933594-11.136719-13.492188zm-62.671875 32.0625-288.976562 150.085938-112.515625-75.007813zm-39.625 43.117188-198.851562 148.636719c-1.550781 1.160156-2.828125 2.867187-3.492188 4.859374-.015625.042969-.035156.078126-.050781.121094l-21.941406 68.960938-14.703125-98.425782zm-209.691406 242.511719 22.332031-70.179688 41.464844 27.644531zm177.097656 8.960937c-10.832031-7.21875-126.035156-84.023437-142.945312-95.292969l257.296875-192.320312zm0 0"/><path d="m355.785156 272.929688-26.78125-17.847657c-4.59375-3.058593-10.804687-1.820312-13.867187 2.773438-3.0625 4.597656-1.820313 10.804687 2.777343 13.867187l26.777344 17.851563c4.578125 3.050781 10.792969 1.839843 13.867188-2.777344 3.0625-4.59375 1.820312-10.800781-2.773438-13.867187zm0 0"/></svg>